{
	"asset":{
		"generator":"Khronos glTF Blender I/O v4.2.57",
		"version":"2.0"
	},
	"scene":0,
	"scenes":[
		{
			"name":"Scene",
			"nodes":[
				0
			]
		}
	],
	"nodes":[
		{
			"mesh":0,
			"name":"2_lod0",
			"rotation":[
				0,
				0.3173046112060547,
				0,
				0.948323667049408
			],
			"scale":[
				0.9210348725318909,
				1,
				0.9210348725318909
			],
			"translation":[
				0.01401510089635849,
				2.5306105613708496,
				-0.3293704092502594
			]
		}
	],
	"materials":[
		{
			"name":"hotel",
			"pbrMetallicRoughness":{
				"baseColorTexture":{
					"index":0
				}
			}
		},
		{
			"name":"palace-main",
			"pbrMetallicRoughness":{
				"baseColorTexture":{
					"index":1
				}
			}
		},
		{
			"name":"palace-hall",
			"pbrMetallicRoughness":{
				"baseColorTexture":{
					"index":2
				}
			}
		}
	],
	"meshes":[
		{
			"name":"Mesh_0.647",
			"primitives":[
				{
					"attributes":{
						"POSITION":0,
						"NORMAL":1,
						"TEXCOORD_0":2,
						"TANGENT":3
					},
					"indices":4,
					"material":0
				},
				{
					"attributes":{
						"POSITION":5,
						"NORMAL":6,
						"TEXCOORD_0":7,
						"TANGENT":8
					},
					"indices":9,
					"material":1
				},
				{
					"attributes":{
						"POSITION":10,
						"NORMAL":11,
						"TEXCOORD_0":12,
						"TANGENT":13
					},
					"indices":14,
					"material":2
				}
			]
		}
	],
	"textures":[
		{
			"sampler":0,
			"source":0
		},
		{
			"sampler":0,
			"source":1
		},
		{
			"sampler":0,
			"source":2
		}
	],
	"images":[
		{
			"mimeType":"image/png",
			"name":"residence_yellow_diff",
			"uri":"residence_yellow_diff.png"
		},
		{
			"mimeType":"image/png",
			"name":"palace_main_building_diff_0",
			"uri":"palace_main_building_diff_0.png"
		},
		{
			"mimeType":"image/png",
			"name":"palace_hall_01_diff_0",
			"uri":"palace_hall_01_diff_0.png"
		}
	],
	"accessors":[
		{
			"bufferView":0,
			"componentType":5126,
			"count":7979,
			"max":[
				1.4437198638916016,
				0.5057883858680725,
				1.9915087223052979
			],
			"min":[
				-1.907982349395752,
				-3.067063331604004,
				-1.4392781257629395
			],
			"type":"VEC3"
		},
		{
			"bufferView":1,
			"componentType":5126,
			"count":7979,
			"type":"VEC3"
		},
		{
			"bufferView":2,
			"componentType":5126,
			"count":7979,
			"type":"VEC2"
		},
		{
			"bufferView":3,
			"componentType":5126,
			"count":7979,
			"type":"VEC4"
		},
		{
			"bufferView":4,
			"componentType":5123,
			"count":12231,
			"type":"SCALAR"
		},
		{
			"bufferView":5,
			"componentType":5126,
			"count":10194,
			"max":[
				1.6977695226669312,
				-0.22894585132598877,
				2.2306265830993652
			],
			"min":[
				-2.138368606567383,
				-3.777416944503784,
				-1.6639494895935059
			],
			"type":"VEC3"
		},
		{
			"bufferView":6,
			"componentType":5126,
			"count":10194,
			"type":"VEC3"
		},
		{
			"bufferView":7,
			"componentType":5126,
			"count":10194,
			"type":"VEC2"
		},
		{
			"bufferView":8,
			"componentType":5126,
			"count":10194,
			"type":"VEC4"
		},
		{
			"bufferView":9,
			"componentType":5123,
			"count":26568,
			"type":"SCALAR"
		},
		{
			"bufferView":10,
			"componentType":5126,
			"count":363,
			"max":[
				-0.1661904752254486,
				0.08977723121643066,
				0.5232000350952148
			],
			"min":[
				-1.1455212831497192,
				-0.18951964378356934,
				-0.5733041763305664
			],
			"type":"VEC3"
		},
		{
			"bufferView":11,
			"componentType":5126,
			"count":363,
			"type":"VEC3"
		},
		{
			"bufferView":12,
			"componentType":5126,
			"count":363,
			"type":"VEC2"
		},
		{
			"bufferView":13,
			"componentType":5126,
			"count":363,
			"type":"VEC4"
		},
		{
			"bufferView":14,
			"componentType":5123,
			"count":747,
			"type":"SCALAR"
		}
	],
	"bufferViews":[
		{
			"buffer":0,
			"byteLength":95748,
			"byteOffset":0,
			"target":34962
		},
		{
			"buffer":0,
			"byteLength":95748,
			"byteOffset":95748,
			"target":34962
		},
		{
			"buffer":0,
			"byteLength":63832,
			"byteOffset":191496,
			"target":34962
		},
		{
			"buffer":0,
			"byteLength":127664,
			"byteOffset":255328,
			"target":34962
		},
		{
			"buffer":0,
			"byteLength":24462,
			"byteOffset":382992,
			"target":34963
		},
		{
			"buffer":0,
			"byteLength":122328,
			"byteOffset":407456,
			"target":34962
		},
		{
			"buffer":0,
			"byteLength":122328,
			"byteOffset":529784,
			"target":34962
		},
		{
			"buffer":0,
			"byteLength":81552,
			"byteOffset":652112,
			"target":34962
		},
		{
			"buffer":0,
			"byteLength":163104,
			"byteOffset":733664,
			"target":34962
		},
		{
			"buffer":0,
			"byteLength":53136,
			"byteOffset":896768,
			"target":34963
		},
		{
			"buffer":0,
			"byteLength":4356,
			"byteOffset":949904,
			"target":34962
		},
		{
			"buffer":0,
			"byteLength":4356,
			"byteOffset":954260,
			"target":34962
		},
		{
			"buffer":0,
			"byteLength":2904,
			"byteOffset":958616,
			"target":34962
		},
		{
			"buffer":0,
			"byteLength":5808,
			"byteOffset":961520,
			"target":34962
		},
		{
			"buffer":0,
			"byteLength":1494,
			"byteOffset":967328,
			"target":34963
		}
	],
	"samplers":[
		{
			"magFilter":9729,
			"minFilter":9987
		}
	],
	"buffers":[
		{
			"byteLength":968824,
			"uri":"tier4_mid.bin"
		}
	]
}
